<svg width="351" height="60" viewBox="0 0 351 60" fill="none" xmlns="http://www.w3.org/2000/svg">
<path d="M11.104 37L12.224 31.368L13.12 24.712L14.016 31.368L15.136 37H22.176L26.08 21.192H19.808L19.104 27.944L18.592 33.512L17.696 27.976L16.256 21.192H9.92L8.608 27.976L7.648 33.512L7.136 27.944L6.432 21.192H0.16L4.064 37H11.104ZM34.41 37.32C36.97 37.32 38.666 36.104 39.338 35.336L37.77 31.016C37.258 31.816 36.426 32.328 35.722 32.328C34.986 32.328 34.57 31.912 34.57 31.08V25.544H38.41V21.192H34.57V16.84L28.81 19.4V21.192H26.57V25.544H28.81V31.912C28.81 34.984 30.314 37.32 34.41 37.32ZM49.6665 37L50.7865 31.368L51.6825 24.712L52.5785 31.368L53.6985 37H60.7385L64.6425 21.192H58.3705L57.6665 27.944L57.1545 33.512L56.2585 27.976L54.8185 21.192H48.4825L47.1705 27.976L46.2105 33.512L45.6985 27.944L44.9945 21.192H38.7225L42.6265 37H49.6665ZM71.1338 37V29.032C71.1338 26.472 72.3498 25.224 73.6618 25.224C74.5898 25.224 74.9738 25.832 74.9738 26.728C74.9738 27.688 74.3338 28.904 73.7578 29.576H79.0378C79.4858 28.776 80.1258 27.144 80.1258 25.224C80.1258 22.6 79.1018 20.872 76.3498 20.872C73.1178 20.872 71.6138 23.816 71.1338 26.536V21.192H65.3738V37H71.1338ZM84.3848 21.224C86.1128 21.224 87.5208 19.944 87.5208 18.056C87.5208 16.2 86.1128 14.92 84.3848 14.92C82.6568 14.92 81.2488 16.2 81.2488 18.056C81.2488 19.944 82.6568 21.224 84.3848 21.224ZM84.3848 19.016C83.8728 19.016 83.5528 18.664 83.5528 18.056C83.5528 17.448 83.8728 17.128 84.3848 17.128C84.8968 17.128 85.2168 17.448 85.2168 18.056C85.2168 18.664 84.8968 19.016 84.3848 19.016Z" fill="black"/>
<g filter="url(#filter0_d_209_66)">
<rect x="299" y="6" width="44" height="44" rx="10" fill="white"/>
</g>
<rect x="307" y="22" width="28" height="2" rx="1" fill="black"/>
<rect x="307" y="32" width="28" height="2" rx="1" fill="black"/>
<defs>
<filter id="filter0_d_209_66" x="291" y="0" width="60" height="60" filterUnits="userSpaceOnUse" color-interpolation-filters="sRGB">
<feFlood flood-opacity="0" result="BackgroundImageFix"/>
<feColorMatrix in="SourceAlpha" type="matrix" values="0 0 0 0 0 0 0 0 0 0 0 0 0 0 0 0 0 0 127 0" result="hardAlpha"/>
<feOffset dy="2"/>
<feGaussianBlur stdDeviation="4"/>
<feComposite in2="hardAlpha" operator="out"/>
<feColorMatrix type="matrix" values="0 0 0 0 0 0 0 0 0 0 0 0 0 0 0 0 0 0 0.1 0"/>
<feBlend mode="normal" in2="BackgroundImageFix" result="effect1_dropShadow_209_66"/>
<feBlend mode="normal" in="SourceGraphic" in2="effect1_dropShadow_209_66" result="shape"/>
</filter>
</defs>
</svg>
